<?xml version="1.0" standalone="no"?>
<!DOCTYPE svg PUBLIC "-//W3C//DTD SVG 20010904//EN"
 "http://www.w3.org/TR/2001/REC-SVG-20010904/DTD/svg10.dtd">
<svg version="1.0" xmlns="http://www.w3.org/2000/svg"
 width="1024.000000pt" height="1024.000000pt" viewBox="0 0 1024.000000 1024.000000"
 preserveAspectRatio="xMidYMid meet">
<metadata>
Created by potrace 1.11, written by Peter Selinger 2001-2013
</metadata>
<g transform="translate(0.000000,1024.000000) scale(0.100000,-0.100000)"
fill="#000000" stroke="none">
<path d="M4910 7634 c-19 -2 -78 -9 -130 -15 -330 -37 -706 -169 -1009 -352
-124 -74 -301 -210 -415 -318 -552 -521 -836 -1238 -795 -2001 44 -798 472
-1536 1149 -1981 123 -80 382 -210 525 -262 119 -44 331 -99 469 -121 155 -25
548 -30 706 -10 569 75 1072 320 1471 716 412 410 656 902 741 1495 19 134 16
511 -5 660 -161 1121 -1025 1996 -2139 2166 -127 19 -477 34 -568 23z m390
-750 c205 -38 386 -132 539 -278 403 -386 454 -993 120 -1436 -233 -309 -624
-472 -1005 -419 -463 64 -833 417 -920 876 -22 120 -15 355 15 465 105 384
405 683 779 777 103 26 117 28 263 30 79 0 158 -5 209 -15z m-1128 -2059 c169
-162 393 -280 638 -336 122 -28 365 -36 490 -15 279 45 526 166 733 357 l78
72 57 -13 c79 -17 210 -80 281 -134 195 -150 331 -425 401 -811 l19 -100 -56
-73 c-278 -364 -696 -643 -1149 -767 -214 -59 -310 -70 -579 -69 -217 1 -253
3 -378 28 -156 30 -389 104 -519 164 -314 146 -609 384 -823 665 l-37 49 12
76 c27 173 92 386 157 517 92 184 223 325 366 395 78 38 169 68 211 69 10 1
54 -33 98 -74z"/>
</g>
</svg>
